<svg width="24" height="16" viewBox="0 0 24 16" fill="none" xmlns="http://www.w3.org/2000/svg">
<path d="M23.5309 7.54344C23.4962 7.4675 22.6749 5.64406 20.8609 3.83C18.4337 1.40656 15.3746 0.125 11.9996 0.125C8.62464 0.125 5.56557 1.40656 3.1412 3.83C1.32714 5.64406 0.505886 7.4675 0.468386 7.54344C0.404873 7.68743 0.37207 7.84309 0.37207 8.00047C0.37207 8.15785 0.404873 8.3135 0.468386 8.4575C0.503073 8.53438 1.32432 10.3569 3.13932 12.1709C5.56557 14.5944 8.62464 15.875 11.9996 15.875C15.3746 15.875 18.4337 14.5944 20.8571 12.1709C22.6721 10.3569 23.4934 8.53438 23.5281 8.4575C23.592 8.3137 23.6253 8.15815 23.6258 8.00077C23.6263 7.84338 23.594 7.68763 23.5309 7.54344ZM19.2128 10.6372C17.1999 12.6191 14.7737 13.625 11.9996 13.625C9.22557 13.625 6.79932 12.6191 4.78932 10.6362C3.9984 9.85365 3.31805 8.96671 2.76714 8C3.31821 7.03368 3.99854 6.14707 4.78932 5.36469C6.80026 3.38094 9.22557 2.375 11.9996 2.375C14.7737 2.375 17.199 3.38094 19.2099 5.36469C20.0008 6.147 20.6812 7.03362 21.2321 8C20.6811 8.96665 20.0008 9.85358 19.2099 10.6362L19.2128 10.6372ZM11.9996 3.875C11.1838 3.875 10.3863 4.11693 9.70791 4.57019C9.02956 5.02345 8.50084 5.66769 8.18863 6.42143C7.87642 7.17518 7.79473 8.00458 7.9539 8.80475C8.11306 9.60492 8.50593 10.3399 9.08282 10.9168C9.65971 11.4937 10.3947 11.8866 11.1949 12.0457C11.9951 12.2049 12.8245 12.1232 13.5782 11.811C14.332 11.4988 14.9762 10.9701 15.4294 10.2917C15.8827 9.61337 16.1246 8.81585 16.1246 8C16.1234 6.90636 15.6884 5.85787 14.9151 5.08455C14.1418 4.31124 13.0933 3.87624 11.9996 3.875ZM11.9996 9.875C11.6288 9.875 11.2663 9.76503 10.9579 9.55901C10.6496 9.35298 10.4093 9.06014 10.2674 8.71753C10.1254 8.37492 10.0883 7.99792 10.1607 7.63421C10.233 7.27049 10.4116 6.9364 10.6738 6.67417C10.936 6.41195 11.2701 6.23337 11.6338 6.16103C11.9976 6.08868 12.3746 6.12581 12.7172 6.26773C13.0598 6.40964 13.3526 6.64996 13.5586 6.95831C13.7647 7.26665 13.8746 7.62916 13.8746 8C13.8746 8.49728 13.6771 8.97419 13.3255 9.32582C12.9738 9.67746 12.4969 9.875 11.9996 9.875Z" fill="#6E6E91"/>
</svg>
