<svg width="14" height="14" viewBox="0 0 14 14" fill="none" xmlns="http://www.w3.org/2000/svg">
<path d="M7.46458 1.7232L11.4021 5.6607C11.5254 5.78399 11.5946 5.9512 11.5946 6.12555C11.5946 6.2999 11.5254 6.46711 11.4021 6.59039C11.2788 6.71367 11.1116 6.78293 10.9372 6.78293C10.7629 6.78293 10.5957 6.71367 10.4724 6.59039L7.65653 3.77344L7.65653 11.8125C7.65653 11.9865 7.58739 12.1535 7.46432 12.2765C7.34125 12.3996 7.17433 12.4688 7.00028 12.4688C6.82623 12.4688 6.65931 12.3996 6.53624 12.2765C6.41317 12.1535 6.34403 11.9865 6.34403 11.8125L6.34403 3.77344L3.52653 6.5893C3.40324 6.71258 3.23604 6.78184 3.06169 6.78184C2.88733 6.78184 2.72013 6.71258 2.59684 6.5893C2.47356 6.46601 2.4043 6.2988 2.4043 6.12445C2.4043 5.9501 2.47356 5.78289 2.59684 5.65961L6.53434 1.72211C6.59539 1.66092 6.66793 1.61239 6.74779 1.57931C6.82764 1.54624 6.91325 1.52926 6.99969 1.52936C7.08612 1.52947 7.17169 1.54664 7.25147 1.57991C7.33125 1.61317 7.40367 1.66187 7.46458 1.7232Z" fill="#42BD53"/>
</svg>
