<svg width="24" height="16" viewBox="0 0 24 16" fill="none" xmlns="http://www.w3.org/2000/svg">
<path d="M11.7352 10.7131C12.6775 9.92111 13.3533 8.85849 13.6711 7.66934C13.989 6.4802 13.9334 5.22208 13.5119 4.0656C13.0904 2.90913 12.3234 1.91027 11.315 1.20448C10.3066 0.498683 9.10548 0.120117 7.8746 0.120117C6.64371 0.120117 5.44261 0.498683 4.43418 1.20448C3.42575 1.91027 2.65879 2.90913 2.23731 4.0656C1.81583 5.22208 1.76024 6.4802 2.07805 7.66934C2.39587 8.85849 3.07173 9.92111 4.01397 10.7131C2.54264 11.3784 1.26758 12.4116 0.311784 13.7131C0.13525 13.9537 0.0615074 14.2545 0.10678 14.5494C0.152052 14.8444 0.312631 15.1092 0.553191 15.2858C0.79375 15.4623 1.09459 15.536 1.38952 15.4908C1.68445 15.4455 1.94931 15.2849 2.12585 15.0444C2.78748 14.1407 3.65281 13.4058 4.65164 12.8992C5.65046 12.3926 6.75464 12.1286 7.8746 12.1286C8.99455 12.1286 10.0987 12.3926 11.0976 12.8992C12.0964 13.4058 12.9617 14.1407 13.6233 15.0444C13.7999 15.285 14.0648 15.4457 14.3598 15.4911C14.6548 15.5365 14.9558 15.4628 15.1965 15.2862C15.4372 15.1097 15.5979 14.8448 15.6432 14.5498C15.6886 14.2547 15.6149 13.9538 15.4383 13.7131C14.482 12.4118 13.2067 11.3786 11.7352 10.7131ZM4.1246 6.12498C4.1246 5.3833 4.34453 4.65828 4.75659 4.0416C5.16864 3.42491 5.75431 2.94426 6.43953 2.66044C7.12476 2.37661 7.87876 2.30234 8.60619 2.44704C9.33361 2.59173 10.0018 2.94889 10.5262 3.47333C11.0507 3.99778 11.4078 4.66597 11.5525 5.3934C11.6972 6.12082 11.623 6.87483 11.3391 7.56005C11.0553 8.24527 10.5747 8.83094 9.95799 9.243C9.3413 9.65505 8.61628 9.87498 7.8746 9.87498C6.88004 9.87498 5.92621 9.4799 5.22295 8.77664C4.51969 8.07337 4.1246 7.11955 4.1246 6.12498ZM23.4465 15.2815C23.3274 15.3691 23.1922 15.4323 23.0487 15.4675C22.9051 15.5028 22.7561 15.5094 22.61 15.487C22.4639 15.4646 22.3236 15.4137 22.1973 15.3371C22.0709 15.2605 21.9608 15.1598 21.8733 15.0406C21.2101 14.1387 20.3444 13.4051 19.3459 12.8987C18.3475 12.3923 17.2441 12.1273 16.1246 12.125C15.8262 12.125 15.5401 12.0065 15.3291 11.7955C15.1181 11.5845 14.9996 11.2984 14.9996 11C14.9996 10.7016 15.1181 10.4155 15.3291 10.2045C15.5401 9.99351 15.8262 9.87498 16.1246 9.87498C16.6767 9.87434 17.2219 9.75177 17.7212 9.51603C18.2205 9.28029 18.6616 8.9372 19.013 8.51127C19.3643 8.08533 19.6173 7.58706 19.7538 7.05205C19.8903 6.51704 19.907 5.95848 19.8026 5.41628C19.6983 4.87408 19.4755 4.36161 19.1501 3.91548C18.8248 3.46935 18.405 3.10056 17.9206 2.83547C17.4363 2.57037 16.8994 2.4155 16.3482 2.38193C15.7971 2.34835 15.2454 2.43689 14.7324 2.64123C14.595 2.6975 14.4478 2.726 14.2993 2.72511C14.1509 2.72421 14.004 2.69394 13.8673 2.63603C13.7306 2.57811 13.6067 2.49371 13.5028 2.38769C13.3988 2.28166 13.3169 2.15611 13.2617 2.01827C13.2065 1.88042 13.1792 1.73302 13.1812 1.58456C13.1833 1.4361 13.2147 1.28951 13.2737 1.15325C13.3327 1.01699 13.418 0.893751 13.5249 0.790642C13.6317 0.687532 13.7579 0.606591 13.8962 0.552484C15.2202 0.0223695 16.6898 -0.0187611 18.0414 0.436467C19.393 0.891696 20.5383 1.81351 21.2718 3.03663C22.0054 4.25974 22.2793 5.70417 22.0444 7.11091C21.8094 8.51766 21.0811 9.79471 19.9899 10.7131C21.4612 11.3784 22.7363 12.4116 23.6921 13.7131C23.8669 13.9539 23.9392 14.2541 23.8931 14.548C23.8471 14.842 23.6865 15.1057 23.4465 15.2815Z" fill="#6E6E91"/>
</svg>
