<svg width="14" height="14" viewBox="0 0 14 14" fill="none" xmlns="http://www.w3.org/2000/svg">
<path d="M6.53542 12.2768L2.59792 8.3393C2.47464 8.21601 2.40538 8.0488 2.40538 7.87445C2.40538 7.7001 2.47464 7.53289 2.59792 7.40961C2.72121 7.28633 2.88842 7.21706 3.06277 7.21706C3.23712 7.21706 3.40433 7.28633 3.52761 7.40961L6.34347 10.2266L6.34347 2.1875C6.34347 2.01345 6.41261 1.84653 6.53568 1.72346C6.65875 1.60039 6.82567 1.53125 6.99972 1.53125C7.17377 1.53125 7.34069 1.60039 7.46376 1.72346C7.58683 1.84653 7.65597 2.01345 7.65597 2.1875L7.65597 10.2266L10.4735 7.4107C10.5968 7.28742 10.764 7.21816 10.9383 7.21816C11.1127 7.21816 11.2799 7.28742 11.4032 7.4107C11.5264 7.53399 11.5957 7.7012 11.5957 7.87555C11.5957 8.0499 11.5264 8.21711 11.4032 8.34039L7.46566 12.2779C7.40461 12.3391 7.33207 12.3876 7.25221 12.4207C7.17236 12.4538 7.08675 12.4707 7.00031 12.4706C6.91388 12.4705 6.82831 12.4534 6.74853 12.4201C6.66875 12.3868 6.59633 12.3381 6.53542 12.2768Z" fill="#FF6666"/>
</svg>
